<?xml version="1.0" encoding="UTF-8" standalone="no"?>
<!-- Created with Inkscape (http://www.inkscape.org/) -->

<svg
   width="210mm"
   height="297mm"
   viewBox="0 0 210 297"
   version="1.1"
   id="svg5"
   inkscape:version="1.2.1 (9c6d41e, 2022-07-14)"
   sodipodi:docname="rysunek.svg"
   xmlns:inkscape="http://www.inkscape.org/namespaces/inkscape"
   xmlns:sodipodi="http://sodipodi.sourceforge.net/DTD/sodipodi-0.dtd"
   xmlns="http://www.w3.org/2000/svg"
   xmlns:svg="http://www.w3.org/2000/svg">
  <sodipodi:namedview
     id="namedview7"
     pagecolor="#505050"
     bordercolor="#ffffff"
     borderopacity="1"
     inkscape:showpageshadow="0"
     inkscape:pageopacity="0"
     inkscape:pagecheckerboard="1"
     inkscape:deskcolor="#505050"
     inkscape:document-units="mm"
     showgrid="false"
     inkscape:zoom="0.72960859"
     inkscape:cx="-52.08272"
     inkscape:cy="617.45435"
     inkscape:window-width="1920"
     inkscape:window-height="1025"
     inkscape:window-x="0"
     inkscape:window-y="0"
     inkscape:window-maximized="1"
     inkscape:current-layer="layer1" />
  <defs
     id="defs2" />
  <g
     inkscape:label="Warstwa 1"
     inkscape:groupmode="layer"
     id="layer1">
    <path
       style="fill:#502d16;stroke-width:1;stroke:#000000;stroke-opacity:1"
       d="m 90.270446,240.81984 c 1.30307,6.17744 -2.074723,0.38952 -2.802184,1.07658 -0.147754,0.13955 -0.818989,1.51241 -1.067086,1.76347 -0.145483,0.14723 -1.655757,0.63745 -1.687644,0.65381 -1.427822,0.73258 0.330123,-0.009 -0.362636,0.72527 -0.18705,0.19839 -0.605062,0.005 -0.795684,0.45377 -0.08639,0.20339 0.103024,0.46743 0,0.66292 -0.403299,0.76529 -0.751602,1.42083 -0.999776,2.18295 -0.238998,0.73396 0.286245,1.74079 0,2.45639 -0.126976,0.31745 -0.572373,0.41947 -0.725273,0.72528 -0.560363,1.12072 0.153977,2.89367 -0.362638,3.9269 -0.19491,0.38982 -0.530362,0.69809 -0.725275,1.08791 -0.190545,0.3811 -0.138126,5.27197 0,5.66006 0.261868,0.73575 0.718174,1.66853 1.004691,2.42399 0.07016,0.18498 -0.09394,0.41941 0,0.59353 0.111816,0.20726 1.204947,1.37573 1.550062,1.55006 0.100301,0.0507 0.257654,-0.0795 0.337116,0 0.211103,0.21109 0.319103,0.78542 0.725276,1.06238 0.822991,0.56113 1.25853,0.43413 1.694815,0.65228 0.305802,0.1529 0.4436,0.53147 0.725276,0.72528 0.486772,0.33488 1.701696,0.18637 2.28284,0.34194 0.280895,0.0752 0.354942,0.49054 0.616863,0.61685 0.588026,0.28356 1.147178,0.1828 1.803472,0.36264 0.537879,0.1474 0.813818,0.63013 1.374984,0.82103 0.879916,0.29932 2.67105,0.19984 3.308469,-0.36264 0.382444,-0.33747 0.363886,-0.98742 0.725273,-1.34736 0.08565,-0.0853 0.277164,0.0855 0.362638,0 0.308184,-0.30819 0.583435,-0.6758 0.725276,-1.08792 0.07496,-0.2178 -0.07496,-0.4732 0,-0.69098 0.243845,-0.7085 1.101269,-1.48876 1.44599,-2.16674 0.253584,-0.49873 0.767479,-2.2227 1.794549,-1.76451 0.38302,0.17087 0.67511,0.6836 1.06288,0.83362 0.41328,0.15988 0.91426,0.17946 1.32525,0.31664 0.36109,0.12053 0.29228,0.70863 0.50516,1.02421 0.53343,0.79081 1.54159,1.39329 2.12443,2.12444 0.56172,0.70467 0.59334,1.14856 1.38304,1.7457 0.72494,0.54816 1.15643,0.0802 1.90898,0.33104 1.73108,0.57706 3.26492,1.98364 4.72365,2.89187 0.35862,0.22329 1.32958,-0.12853 1.7152,0 0.16218,0.0541 0.20239,0.30311 0.36264,0.36264 1.21821,0.45249 3.31141,-0.19992 4.34656,-0.71747 0.33871,-0.16936 0.55521,-0.84325 0.71345,-0.95914 0.18655,-0.1366 0.48684,0.1034 0.69365,0 0.40992,-0.20497 0.61492,-0.82479 1.02636,-1.02637 0.77712,-0.38074 1.89795,-0.77153 2.3725,-1.68323 0.16772,-0.32223 -0.44053,-1.19197 -0.0655,-1.57263 0.54019,-0.54822 0.17351,0.50869 0.52866,-0.18814 0.11502,-0.22569 0.0881,-0.79928 0.21151,-0.97679 0.19189,-0.27606 0.51183,-0.44396 0.71319,-0.71319 0.22894,-0.30611 0.0923,-0.81762 0.36264,-1.08791 0.19112,-0.19113 0.53415,-0.17151 0.72527,-0.36264 0.71769,-0.71769 0.0822,-0.88153 0.36264,-1.58129 0.12289,-0.30662 0.55101,-0.40628 0.70073,-0.70073 0.0957,-0.18824 0.42198,-4.6768 0.34832,-4.89777 -0.66403,-1.99205 0.0266,0.71493 -1.0834,-1.44152 -0.16894,-0.3282 0.19452,-1.04606 0,-1.36877 -0.74555,-1.23685 -2.10068,-2.16632 -2.95196,-2.96092 -0.23555,-0.21987 -0.13562,-0.6514 -0.32948,-0.90877 -0.28771,-0.38195 -0.75068,-0.61549 -1.01439,-1.01438 -0.66669,-1.00845 -1.1568,-2.32128 -1.80212,-3.21994 -0.28349,-0.39477 -1.5323,-0.74733 -1.89154,-0.96287 -0.86125,-0.51675 -0.75515,-1.09948 -1.45055,-1.81319 -0.0328,-0.0337 -0.57593,0.0297 -0.62974,0 -0.0324,-0.0179 -0.68245,-0.69671 -0.71864,-0.71864 -0.35584,-0.21556 -0.20545,0.41972 -0.68275,0 -0.19812,-0.17421 -0.13337,-0.5632 -0.35397,-0.70789 -0.37471,-0.24579 -0.71923,0.12289 -1.08791,0 -1.10844,-0.36949 -2.14446,-1.07328 -3.25292,-1.44515 -0.91302,-0.30631 -8.62682,-1.07219 -9.71455,-0.72528 -0.42316,0.13496 -0.61059,0.30117 -1.16231,0.30117 -0.65084,0 -5.468484,-0.35757 -6.183626,0 -0.527997,0.264 -1.032015,0.91804 -1.373878,1.07643 -0.01905,0.009 -0.696399,-0.009 -0.714142,0 -0.277275,0.13864 -0.514406,0.38268 -0.657611,0.65763 -0.04243,0.0815 0.08225,0.31638 0,0.27552 -0.722075,-0.35868 -1.363433,-0.86095 -2.045147,-1.29143 z"
       id="path3154" />
    <path
       style="fill:#008000;stroke:#000000;stroke-width:1;stroke-opacity:1"
       d="m 44.109309,230.94278 c -1.261621,3.16054 3.517212,2.46112 4.267475,4.30444 0.04193,0.10301 -0.0797,0.25608 0,0.33366 1.708877,1.66337 8.70051,3.78125 10.921685,4.36601 1.192715,0.31401 2.574168,0.0193 3.684474,-0.32233 0.876786,-0.26976 7.791113,-0.12614 9.04214,0 0.849479,0.0857 1.706269,0.16247 2.534566,0.36955 1.091189,0.27279 1.640345,0.93701 2.881754,1.07509 0.129656,0.0144 2.407581,-0.16645 2.941735,0 0.01447,0.005 0.628309,0.63802 0.648052,0.64805 0.865778,0.43994 5.968302,0 7.325056,0 1.034216,0 2.068433,0 3.102649,0 0.225349,0 0.690267,0.2249 0.676048,0 -0.0164,-0.25965 -0.511598,-0.16768 -0.698117,-0.34907 -0.08105,-0.0788 0.226119,0 0.339178,0 0.511625,0 1.023252,0 1.534877,0 3.37807,0 6.756139,0 10.134209,0 1.23799,0 3.10524,0.2969 4.29282,0 4.66164,-1.16541 9.64419,-0.72527 14.52628,-0.72527 4.88656,0 10.06499,-0.37651 14.95003,0 6.52046,0.50256 0.84654,0.14354 4.66008,0.7772 1.09616,0.18214 2.38505,0 3.48651,0 2.51737,0 5.03473,0 7.5521,0 0.90013,0 4.29524,0.29294 4.84027,0 1.49711,-0.80465 -1.04418,0.2428 0.65412,-0.65409 0.0924,-0.0488 0.24465,0.0786 0.3135,0 0.38095,-0.43505 -0.17824,-1.92873 0,-2.54015 0.11464,-0.39327 0.73686,-0.87202 0.92153,-1.24867 0.15831,-0.32288 -0.12896,-0.74313 0,-1.07881 0.0746,-0.19407 0.47011,-0.0924 0.5566,-0.28143 0.1793,-0.39192 0.19388,-2.94989 0,-3.265 -0.72453,-1.17751 -1.4254,-1.47798 -2.29221,-2.63339 -0.20292,-0.27049 -0.78414,-1.85054 -1.04561,-2.11201 -0.6547,-0.6547 -1.11321,-0.59753 -1.63853,-1.33318 -0.24873,-0.49395 -0.49745,-0.98791 -0.74617,-1.48187 0,-0.12088 0.0541,-0.25452 0,-0.36263 -0.26746,-0.53492 -0.4697,-0.40061 -0.69807,-0.64442 -0.0816,-0.0871 0,-0.23875 0,-0.35813 -0.11938,-0.23874 -0.17254,-0.52437 -0.35813,-0.71622 -0.0776,-0.0802 -0.27843,0.0963 -0.3347,0 -0.0963,-0.16496 0.0932,-0.40633 0,-0.57311 -0.32725,-0.58584 -1.60455,-2.0129 -2.13156,-2.39361 -3.97633,-2.87253 0.70112,1.15108 -2.5835,-1.48537 -1.23865,-0.99422 -2.20293,-2.8699 -3.59517,-3.59519 -0.0986,-0.0514 -0.25627,0.08 -0.33346,0 -0.08,-0.0829 0,-0.23033 0,-0.3455 -0.24176,-0.24176 -0.48352,-0.48352 -0.72527,-0.72528 -0.60761,-0.6076 -1.53672,-1.17909 -2.09453,-1.76402 -0.16771,-0.17587 0.11732,-0.81145 0,-1.03342 -0.35471,-0.67112 -0.93592,-0.8961 -1.40491,-1.35263 -0.58078,-0.56536 0.33057,-0.12428 0,-0.52088 -0.46554,-0.55851 -2.01034,-2.2451 -2.5141,-2.61225 -0.34089,-0.24845 -1.24978,0.23175 -1.5974,0 -0.2249,-0.14993 -0.13774,-0.57534 -0.36264,-0.72527 -0.76143,-0.50762 -2.39723,0.41313 -3.2235,0 -0.3058,-0.15291 -0.40752,-0.59908 -0.72527,-0.72528 -0.34103,-0.13545 -0.74091,0.0715 -1.10082,0 -0.8934,-0.17742 -1.81349,-0.54227 -2.70807,-0.72074 -1.20008,-0.23941 -2.76213,0 -3.99498,0 -2.76424,0 -5.52847,0 -8.2927,0 -12.32631,0 -24.652612,0 -36.978919,0 -1.571602,0 -10.980587,-0.44153 -12.130643,0.3274 -0.132496,0.0886 -0.373772,0.76101 -0.676558,0.91605 -3e-5,1e-5 -0.668137,-2e-5 -0.66815,0 -0.333134,0.3616 0.03285,1.94039 -0.376338,2.55225 -1.108874,1.65812 -3.32686,2.64367 -4.351647,4.35165 -0.124383,0.2073 0.109127,0.50954 0,0.72527 -0.433708,0.85737 -1.41197,1.70998 -1.849996,2.58603 -0.25382,0.50764 -0.764759,2.20325 -1.087911,2.5264 -0.214775,0.21477 -0.794795,0.30608 -1.075849,0.72527 -0.691459,1.03131 -1.297162,2.36751 -2.163741,3.23955 -0.08414,0.0847 -0.273963,-0.0847 -0.3581,0 -0.206045,0.20735 -0.534562,1.19909 -0.720715,1.36312 -1.74888,1.54099 -0.02537,-0.16984 -1.03446,0.3347 -1.177197,0.5886 -1.977858,2.33578 -2.822104,3.18122 -0.268073,0.26846 -0.807026,0.098 -1.078836,0.36264 -0.244718,0.2383 -0.495027,1.11923 -0.846833,1.4245 -0.08265,0.0717 -0.232497,-0.0529 -0.328284,0 -0.429014,0.23696 -0.614138,0.78548 -1.022353,1.0567 -0.09732,0.0647 -0.233688,0 -0.350531,0 -0.55545,0.37749 -1.1109,0.75498 -1.666353,1.13247 z"
       id="path5692" />
    <path
       style="fill:#008000;stroke:#000000;stroke-width:0.823927;stroke-opacity:1"
       d="m 54.324009,200.7619 c -1.03948,2.60405 2.89793,2.02778 3.5161,3.54654 0.0346,0.0849 -0.0657,0.21099 0,0.27491 1.40798,1.3705 7.16858,3.11548 8.99867,3.59728 0.98271,0.25872 2.12092,0.0159 3.03574,-0.26558 0.7224,-0.22226 6.41931,-0.10393 7.45006,0 0.69991,0.0706 1.40584,0.13386 2.0883,0.30449 0.89906,0.22475 1.35152,0.77202 2.37435,0.88579 0.10683,0.0119 1.98368,-0.13714 2.42378,0 0.0119,0.004 0.51768,0.52568 0.53394,0.53395 0.71335,0.36247 4.91746,0 6.03532,0 0.852121,0 1.704234,0 2.556356,0 0.185672,0 0.568732,0.1853 0.557016,0 -0.01351,-0.21394 -0.421521,-0.13816 -0.5752,-0.28761 -0.06682,-0.0649 0.186306,0 0.27946,0 0.421538,0 0.843083,0 1.264629,0 2.783283,0 5.56657,0 8.34984,0 1.02002,0 2.5585,0.24462 3.53698,0 3.84085,-0.96022 7.94611,-0.59757 11.9686,-0.59757 4.02616,0 8.29281,-0.31022 12.31773,0 5.37239,0.41407 0.69749,0.11827 3.83957,0.64035 0.90315,0.15007 1.9651,0 2.87263,0 2.07412,0 4.14824,0 6.22237,0 0.74164,0 3.53897,0.24136 3.98804,0 1.2335,-0.66297 -0.86034,0.20005 0.53894,-0.53892 0.0761,-0.0402 0.20158,0.0648 0.25831,0 0.31388,-0.35845 -0.14686,-1.58913 0,-2.09289 0.0945,-0.32404 0.60712,-0.71849 0.75926,-1.02882 0.13044,-0.26603 -0.10625,-0.61228 0,-0.88886 0.0614,-0.1599 0.38734,-0.0761 0.45861,-0.23188 0.14773,-0.32292 0.15975,-2.4305 0,-2.69012 -0.59696,-0.97018 -1.17443,-1.21775 -1.88861,-2.16972 -0.1672,-0.22287 -0.64608,-1.52471 -0.86152,-1.74014 -0.53942,-0.53943 -0.9172,-0.49233 -1.35002,-1.09845 -0.20494,-0.40698 -0.40987,-0.81397 -0.6148,-1.22095 0,-0.0996 0.0446,-0.20971 0,-0.29878 -0.22036,-0.44073 -0.38699,-0.33007 -0.57516,-0.53096 -0.0672,-0.0717 0,-0.19671 0,-0.29507 -0.0984,-0.19671 -0.14215,-0.43204 -0.29506,-0.59011 -0.0639,-0.0661 -0.22941,0.0794 -0.27577,0 -0.0794,-0.13592 0.0768,-0.33479 0,-0.47221 -0.26963,-0.48268 -1.32203,-1.65848 -1.75625,-1.97216 -3.27621,-2.36675 0.57767,0.94841 -2.12862,-1.22383 -1.02056,-0.81917 -1.81506,-2.36459 -2.96216,-2.96217 -0.0813,-0.0424 -0.21114,0.0659 -0.27474,0 -0.0659,-0.0683 0,-0.18978 0,-0.28467 -0.1992,-0.19919 -0.39839,-0.39839 -0.59758,-0.59758 -0.50062,-0.50062 -1.26614,-0.97149 -1.72573,-1.45343 -0.13819,-0.1449 0.0967,-0.66857 0,-0.85146 -0.29226,-0.55295 -0.77113,-0.73832 -1.15755,-1.11446 -0.47852,-0.46582 0.27237,-0.1024 0,-0.42917 -0.38357,-0.46017 -1.65637,-1.8498 -2.07143,-2.1523 -0.28087,-0.20471 -1.02973,0.19094 -1.31614,0 -0.1853,-0.12354 -0.11349,-0.47405 -0.2988,-0.59758 -0.62735,-0.41824 -1.97514,0.34039 -2.65592,0 -0.25196,-0.12598 -0.33577,-0.49359 -0.59757,-0.59758 -0.28098,-0.11159 -0.61046,0.0589 -0.907,0 -0.7361,-0.14617 -1.49418,-0.44678 -2.23124,-0.59383 -0.98879,-0.19726 -2.2758,0 -3.29157,0 -2.27753,0 -4.55506,0 -6.83258,0 -10.15598,0 -20.311972,0 -30.467951,0 -1.29489,0 -9.04721,-0.36379 -9.99477,0.26975 -0.10916,0.073 -0.30796,0.62702 -0.55743,0.75476 -2e-5,1e-5 -0.55049,-1e-5 -0.55051,0 -0.27447,0.29793 0.027,1.59874 -0.31007,2.10287 -0.91363,1.36617 -2.74109,2.17819 -3.58544,3.58544 -0.10249,0.1708 0.0899,0.41982 0,0.59758 -0.35735,0.7064 -1.16336,1.40889 -1.52426,2.13069 -0.20913,0.41826 -0.63011,1.81532 -0.89636,2.08157 -0.17696,0.17696 -0.65486,0.25219 -0.88642,0.59757 -0.56971,0.84973 -1.06877,1.95066 -1.78277,2.66915 -0.0693,0.0697 -0.22573,-0.0697 -0.29505,0 -0.16976,0.17084 -0.44043,0.98797 -0.59382,1.12312 -1.44095,1.26966 -0.0209,-0.13994 -0.85232,0.27576 -0.96992,0.48497 -1.62961,1.92452 -2.3252,2.6211 -0.22087,0.22119 -0.66493,0.0807 -0.88888,0.29878 -0.20163,0.19635 -0.40787,0.92217 -0.69773,1.17369 -0.0681,0.0591 -0.19156,-0.0436 -0.27049,0 -0.35347,0.19524 -0.506,0.64718 -0.84234,0.87064 -0.0801,0.0533 -0.19254,0 -0.28881,0 -0.45765,0.31103 -0.9153,0.62205 -1.37296,0.93308 z"
       id="path5692-2" />
    <path
       style="fill:#008000;stroke:#000000;stroke-width:0.603061;stroke-opacity:1"
       d="m 62.597408,173.23933 c -0.81859,1.77151 2.28212,1.37948 2.76893,2.41268 0.0273,0.0577 -0.0517,0.14353 0,0.18702 1.10878,0.93233 5.64525,2.11943 7.08645,2.44719 0.77388,0.17601 1.67022,0.0108 2.39064,-0.18067 0.56889,-0.1512 5.0552,-0.0707 5.86692,0 0.55118,0.048 1.10709,0.0911 1.64453,0.20714 0.70801,0.1529 1.06432,0.5252 1.8698,0.6026 0.0841,0.008 1.56215,-0.0933 1.90873,0 0.009,0.003 0.40767,0.35761 0.42047,0.36324 0.56177,0.24658 3.8725,0 4.75281,0 0.67105,0 1.34208,0 2.01313,0 0.14622,0 0.44788,0.12606 0.43865,0 -0.0106,-0.14554 -0.33195,-0.094 -0.45297,-0.19566 -0.0526,-0.0442 0.14672,0 0.22008,0 0.33196,0 0.66392,0 0.99589,0 2.19183,0 4.38366,0 6.575492,0 0.80326,0 2.01481,0.16641 2.78537,0 3.02466,-0.65323 6.25755,-0.40652 9.42526,-0.40652 3.1706,0 6.53058,-0.21104 9.70021,0 4.23075,0.28169 0.54927,0.0805 3.02365,0.43562 0.71123,0.10209 1.54752,0 2.2622,0 1.63337,0 3.26673,0 4.90011,0 0.58404,0 2.78694,0.1642 3.14058,0 0.97138,-0.45101 -0.67752,0.1361 0.42441,-0.36662 0.0599,-0.0274 0.15875,0.0441 0.20342,0 0.24718,-0.24385 -0.11565,-1.08107 0,-1.42377 0.0744,-0.22044 0.47811,-0.48879 0.59792,-0.6999 0.10272,-0.18098 -0.0837,-0.41653 0,-0.60468 0.0483,-0.10878 0.30503,-0.0518 0.36115,-0.15775 0.11634,-0.21968 0.12581,-1.65345 0,-1.83006 -0.4701,-0.66001 -0.92486,-0.82843 -1.48728,-1.47605 -0.13166,-0.15161 -0.50878,-1.03724 -0.67844,-1.1838 -0.42479,-0.36697 -0.72229,-0.33492 -1.06314,-0.74726 -0.16139,-0.27687 -0.32277,-0.55374 -0.48416,-0.8306 0,-0.0678 0.0351,-0.14267 0,-0.20326 -0.17353,-0.29983 -0.30475,-0.22454 -0.45293,-0.36121 -0.0529,-0.0488 0,-0.13382 0,-0.20073 -0.0775,-0.13382 -0.11195,-0.29391 -0.23236,-0.40145 -0.0503,-0.045 -0.18066,0.054 -0.21717,0 -0.0625,-0.0925 0.0605,-0.22775 0,-0.32124 -0.21233,-0.32836 -1.0411,-1.12825 -1.38305,-1.34164 -2.58001,-1.61008 0.45492,0.64519 -1.67628,-0.83256 -0.80369,-0.55728 -1.42936,-1.60861 -2.3327,-2.01514 -0.064,-0.0288 -0.16628,0.0448 -0.21636,0 -0.0519,-0.0465 0,-0.12911 0,-0.19366 -0.15687,-0.13551 -0.31373,-0.27102 -0.47059,-0.40653 -0.39424,-0.34056 -0.99709,-0.66089 -1.35902,-0.98875 -0.10882,-0.0986 0.0761,-0.45482 0,-0.57924 -0.23015,-0.37617 -0.60726,-0.50228 -0.91157,-0.75816 -0.37683,-0.31689 0.2145,-0.0697 0,-0.29196 -0.30206,-0.31305 -1.30439,-1.2584 -1.63125,-1.46419 -0.22118,-0.13926 -0.81091,0.12989 -1.03645,0 -0.14593,-0.084 -0.0894,-0.32249 -0.23531,-0.40653 -0.49404,-0.28452 -1.55542,0.23157 -2.09153,0 -0.19842,-0.0857 -0.26442,-0.33578 -0.47059,-0.40653 -0.22127,-0.0759 -0.48074,0.0401 -0.71426,0 -0.57968,-0.0994 -1.17667,-0.30394 -1.7571,-0.40397 -0.77867,-0.1342 -1.79219,0 -2.59211,0 -1.79356,0 -3.58711,0 -5.38065,0 -7.99783,0 -15.995662,0 -23.993492,0 -1.01972,0 -7.12467,-0.24749 -7.87087,0.1835 -0.086,0.0497 -0.24252,0.42656 -0.43898,0.51346 -1e-5,1e-5 -0.43351,-1e-5 -0.43352,0 -0.21615,0.20268 0.0213,1.08761 -0.24418,1.43056 -0.71949,0.9294 -2.15861,1.48181 -2.82354,2.43915 -0.0807,0.11619 0.0708,0.2856 0,0.40652 -0.28141,0.48056 -0.91614,0.95846 -1.20035,1.44949 -0.16469,0.28454 -0.49621,1.23495 -0.70588,1.41608 -0.13936,0.12038 -0.5157,0.17156 -0.69806,0.40652 -0.44864,0.57806 -0.84165,1.32702 -1.40393,1.8158 -0.0546,0.0474 -0.17776,-0.0474 -0.23235,0 -0.13369,0.11622 -0.34684,0.67211 -0.46763,0.76405 -1.13475,0.86373 -0.0165,-0.0952 -0.6712,0.18759 -0.76382,0.32992 -1.28332,1.30924 -1.8311,1.78311 -0.17393,0.15048 -0.52363,0.0549 -0.69999,0.20326 -0.15878,0.13358 -0.3212,0.62735 -0.54946,0.79845 -0.0536,0.0402 -0.15086,-0.0297 -0.21301,0 -0.27836,0.13282 -0.39848,0.44027 -0.66334,0.59229 -0.0631,0.0363 -0.15163,0 -0.22744,0 -0.3604,0.21159 -0.7208,0.42318 -1.08121,0.63477 z"
       id="path5692-2-1" />
    <path
       style="fill:#ffcc00;stroke:#000000;stroke-width:1;stroke-opacity:1"
       d="m 115.40124,139.25138 -9.83765,-16.31476 -8.908692,14.53246 -15.973092,4.02651 14.171769,6.84354 -12.050721,9.55793 12.983829,0.58124 5.017957,8.33354 8.2423,-8.59711 11.8449,2.1349 -8.0824,-9.82395 13.20284,-6.23615 z"
       id="path7233" />
    <path
       style="fill:#d40000;stroke:#000000;stroke-width:1;stroke-opacity:1"
       id="path8121"
       sodipodi:type="arc"
       sodipodi:cx="-178.78362"
       sodipodi:cy="81.327499"
       sodipodi:rx="7.4181299"
       sodipodi:ry="7.8960609"
       sodipodi:start="0"
       sodipodi:end="6.2830422"
       sodipodi:arc-type="slice"
       d="m -171.36549,81.327499 a 7.4181299,7.8960609 0 0 1 -7.41786,7.896061 7.4181299,7.8960609 0 0 1 -7.4184,-7.895496 7.4181299,7.8960609 0 0 1 7.41734,-7.896626 7.4181299,7.8960609 0 0 1 7.41892,7.894931 l -7.41813,0.0011 z"
       transform="rotate(-90.329684)" />
    <path
       style="fill:#d40000;stroke:#000000;stroke-width:1;stroke-opacity:1"
       id="path8121-2"
       sodipodi:type="arc"
       sodipodi:cx="-192.31735"
       sodipodi:cy="123.78105"
       sodipodi:rx="7.4181299"
       sodipodi:ry="7.8960609"
       sodipodi:start="0"
       sodipodi:end="6.2830422"
       sodipodi:arc-type="slice"
       d="m -184.89922,123.78105 a 7.4181299,7.8960609 0 0 1 -7.41787,7.89606 7.4181299,7.8960609 0 0 1 -7.41839,-7.89549 7.4181299,7.8960609 0 0 1 7.41733,-7.89663 7.4181299,7.8960609 0 0 1 7.41893,7.89493 l -7.41813,0.001 z"
       transform="rotate(-90.329684)" />
    <path
       style="fill:#d40000;stroke:#000000;stroke-width:1;stroke-opacity:1"
       id="path8121-2-7"
       sodipodi:type="arc"
       sodipodi:cx="-209.58643"
       sodipodi:cy="83.006416"
       sodipodi:rx="7.4181299"
       sodipodi:ry="7.8960609"
       sodipodi:start="0"
       sodipodi:end="6.2830422"
       sodipodi:arc-type="slice"
       d="m -202.1683,83.006416 a 7.4181299,7.8960609 0 0 1 -7.41786,7.896061 7.4181299,7.8960609 0 0 1 -7.4184,-7.895496 7.4181299,7.8960609 0 0 1 7.41734,-7.896626 7.4181299,7.8960609 0 0 1 7.41892,7.894931 l -7.41813,0.0011 z"
       transform="rotate(-90.329684)" />
    <path
       style="fill:#d40000;stroke:#000000;stroke-width:1;stroke-opacity:1"
       id="path8121-2-7-0"
       sodipodi:type="arc"
       sodipodi:cx="-225.46721"
       sodipodi:cy="130.31297"
       sodipodi:rx="7.4181299"
       sodipodi:ry="7.8960609"
       sodipodi:start="0"
       sodipodi:end="6.2830422"
       sodipodi:arc-type="slice"
       d="m -218.04908,130.31297 a 7.4181299,7.8960609 0 0 1 -7.41786,7.89606 7.4181299,7.8960609 0 0 1 -7.4184,-7.89549 7.4181299,7.8960609 0 0 1 7.41733,-7.89663 7.4181299,7.8960609 0 0 1 7.41893,7.89493 l -7.41813,0.001 z"
       transform="rotate(-90.329684)" />
    <path
       style="fill:#d40000;stroke:#000000;stroke-width:1;stroke-opacity:1"
       id="path8121-2-7-0-9"
       sodipodi:type="arc"
       sodipodi:cx="-240.03503"
       sodipodi:cy="70.645081"
       sodipodi:rx="7.4181299"
       sodipodi:ry="7.8960609"
       sodipodi:start="0"
       sodipodi:end="6.2830422"
       sodipodi:arc-type="slice"
       d="m -232.6169,70.645081 a 7.4181299,7.8960609 0 0 1 -7.41787,7.896061 7.4181299,7.8960609 0 0 1 -7.41839,-7.895496 7.4181299,7.8960609 0 0 1 7.41733,-7.896626 7.4181299,7.8960609 0 0 1 7.41893,7.894931 l -7.41813,0.0011 z"
       transform="rotate(-90.329684)" />
  </g>
</svg>
